<svg xmlns="http://www.w3.org/2000/svg" width="64" height="64" viewBox="0 0 64 64">
  <rect x="6" y="6" width="52" height="52" rx="10" fill="#0b0b0f"/>
  <rect x="16" y="14" width="32" height="36" rx="6" fill="#f7df1e"/>
  <path d="M29 44c0 3 2 5 5 5 2 0 3-.6 4-1.6l-1.9-1.8c-.4.5-1 1-2 1-1.4 0-2.2-1-2.2-2.6V34H29v10zM41.8 43.8c.8 1.2 2.1 2.2 4.2 2.2 2.4 0 4-1.3 4-3.4 0-2-1.2-3-3.7-3.9l-.9-.3c-1.3-.4-1.8-.7-1.8-1.3s.5-1 1.4-1c.9 0 1.6.4 2.2 1.1l2-1.6c-1-1.4-2.4-2-4.2-2-2.4 0-3.8 1.4-3.8 3.2 0 2.1 1.3 3 3.4 3.7l1 .3c1.4.5 2 .8 2 1.4 0 .6-.6 1.1-1.6 1.1-1 0-1.9-.5-2.5-1.4l-2.1 1.7z" fill="#222"/>
</svg>
